<svg width="32" height="32" viewBox="0 0 32 32" fill="none" xmlns="http://www.w3.org/2000/svg">
<path d="M18.4381 29.7589H14.9029C14.9029 26.6466 12.3429 24.1085 9.2038 24.1085C6.06476 24.1085 3.50476 26.6466 3.50476 29.7589H0C0 24.7128 4.11428 20.6035 9.23428 20.6035C14.3543 20.6035 18.4381 24.7128 18.4381 29.7589Z" fill="#324254"/>
<path d="M22.7655 12.7173L24.5331 15.7388C21.8207 17.3101 20.876 20.7546 22.4607 23.4438C24.0455 26.133 27.5198 27.0697 30.2322 25.4985L31.9998 28.5199C27.5808 31.0582 21.9426 29.5775 19.4131 25.1963C16.8836 20.8151 18.3769 15.2252 22.7655 12.7173Z" fill="#324254"/>
<path d="M5.48535 18.0352L7.22249 15.074C7.22249 15.0438 7.25297 15.0438 7.28345 15.074C9.99583 16.615 13.4701 15.6784 15.0244 12.9892C16.5787 10.3 15.6644 6.85542 12.9825 5.28422C12.952 5.28422 12.952 5.25398 12.9825 5.22377L14.7196 2.26265C14.7196 2.23244 14.7501 2.23244 14.7501 2.26265C19.1387 4.80075 20.632 10.3604 18.1025 14.7417C15.573 19.1229 9.90439 20.5733 5.51583 18.0654C5.48535 18.0654 5.48535 18.0352 5.48535 18.0352Z" fill="#324254"/>
</svg>
