<svg width="22" height="22" viewBox="0 0 22 22" fill="none" xmlns="http://www.w3.org/2000/svg">
<path d="M15.0047 6.48951C14.2776 5.84263 13.4046 5.38164 12.4604 5.14602C11.5162 4.91039 10.529 4.90717 9.58326 5.13661C9.75022 5.36004 10.8478 6.8529 11.8373 8.67232C13.9857 7.86696 14.8942 6.6442 15.0047 6.48951ZM12.0312 12.0018C8.62567 13.1877 7.40045 15.5522 7.29241 15.7732C8.31629 16.5712 9.6029 17.0475 11 17.0475C11.8373 17.0475 12.6353 16.8781 13.3596 16.5687C13.2687 16.0384 12.9201 14.192 12.0705 11.9871L12.0312 12.0018ZM13.2025 11.7096C13.9931 13.8801 14.3147 15.648 14.3761 16.0163C15.7315 15.1004 16.6964 13.6493 16.9641 11.9674C16.7578 11.9036 15.0955 11.4076 13.2025 11.7096ZM11 0C4.92545 0 0 4.92545 0 11C0 17.0746 4.92545 22 11 22C17.0746 22 22 17.0746 22 11C22 4.92545 17.0746 0 11 0ZM11 18.0714C7.10089 18.0714 3.92857 14.8991 3.92857 11C3.92857 7.10089 7.10089 3.92857 11 3.92857C14.8991 3.92857 18.0714 7.10089 18.0714 11C18.0714 14.8991 14.8991 18.0714 11 18.0714ZM12.3038 9.57098C12.4437 9.85826 12.5788 10.1504 12.704 10.4451C12.7482 10.5482 12.7924 10.6513 12.8342 10.7569C14.8426 10.504 16.8413 10.9092 17.0402 10.9509C17.0279 9.52433 16.5172 8.21562 15.6775 7.18683C15.5473 7.36116 14.5357 8.66004 12.3038 9.57098ZM10.671 9.03571C9.6692 7.25558 8.59129 5.76027 8.4317 5.54174C6.74241 6.33973 5.4779 7.89643 5.0875 9.76987C5.35759 9.77478 7.84732 9.78705 10.671 9.03571ZM11.4223 11.0614C11.5009 11.0368 11.5795 11.0123 11.6605 10.9902C11.5083 10.6464 11.3438 10.3027 11.1719 9.96629C8.1567 10.8699 5.22746 10.8306 4.96473 10.8257C4.96228 10.8871 4.96228 10.9484 4.96228 11.0098C4.96228 12.5616 5.54911 13.9783 6.51406 15.0489C6.64911 14.8132 8.30647 12.0681 11.4223 11.0614Z" fill="white" fill-opacity="0.4"/>
</svg>
