<svg width="22" height="22" viewBox="0 0 22 22" fill="none" xmlns="http://www.w3.org/2000/svg">
<g clip-path="url(#clip0_485_826)">
<path d="M21.5413 5.96474C21.4167 5.52037 21.174 5.11805 20.8391 4.80057C20.4947 4.47332 20.0726 4.23924 19.6126 4.1204C17.8911 3.66665 10.9941 3.66666 10.9941 3.66666C8.11881 3.63394 5.24423 3.77782 2.38659 4.09749C1.9266 4.2251 1.50527 4.46442 1.16009 4.79416C0.820922 5.12049 0.575256 5.5229 0.446922 5.96382C0.138641 7.62459 -0.0111431 9.31089 -0.000410811 11C-0.0114108 12.6876 0.138006 14.3733 0.446922 16.0362C0.572506 16.4752 0.817256 16.8758 1.15734 17.1994C1.49742 17.523 1.92092 17.7567 2.38659 17.8805C4.13101 18.3333 10.9941 18.3333 10.9941 18.3333C13.873 18.3661 16.7513 18.2222 19.6126 17.9025C20.0726 17.7837 20.4947 17.5496 20.8391 17.2223C21.1783 16.8987 21.4193 16.4963 21.5403 16.0582C21.8567 14.398 22.0105 12.711 21.9996 11.0211C22.0234 9.32396 21.8698 7.62901 21.5413 5.96382V5.96474ZM8.80142 14.1387V7.86224L14.5398 11.0009L8.80142 14.1387Z" fill="white" fill-opacity="0.4"/>
</g>
<defs>
<clipPath id="clip0_485_826">
<rect width="22" height="22" fill="white"/>
</clipPath>
</defs>
</svg>
