<svg width="22" height="22" viewBox="0 0 22 22" fill="none" xmlns="http://www.w3.org/2000/svg">
<path d="M8.74844 9.97612C8.96205 9.82143 9.06518 9.56607 9.06518 9.21496C9.07255 9.04799 9.03817 8.88348 8.96451 8.73371C8.89821 8.61339 8.8 8.51272 8.67969 8.44152C8.55494 8.36587 8.41639 8.31579 8.2721 8.2942C8.11495 8.26473 7.95536 8.25 7.79821 8.25246H6.0721V10.2094H7.94062C8.26228 10.2118 8.53482 10.1333 8.74844 9.97612ZM9.03817 11.744C8.79754 11.5598 8.47589 11.469 8.07567 11.469H6.06719V13.777H8.03638C8.22054 13.777 8.38995 13.7598 8.55446 13.7254C8.71011 13.695 8.85848 13.635 8.99152 13.5487C9.11674 13.4676 9.21741 13.3571 9.29353 13.2147C9.36719 13.0723 9.40402 12.8906 9.40402 12.6721C9.40402 12.2375 9.28125 11.9306 9.03817 11.744ZM11 0C4.92545 0 0 4.92545 0 11C0 17.0746 4.92545 22 11 22C17.0746 22 22 17.0746 22 11C22 4.92545 17.0746 0 11 0ZM13.1239 7.04442H16.5221V7.87187H13.1239V7.04442ZM11 13.8679C10.8411 14.1696 10.6141 14.4302 10.3371 14.629C10.0473 14.8304 9.72567 14.9777 9.38438 15.0636C9.0273 15.1593 8.65895 15.2064 8.28929 15.2036H4.22321V6.82835H8.17634C8.57656 6.82835 8.93996 6.86518 9.27143 6.93393C9.60045 7.00268 9.88036 7.12054 10.1161 7.28013C10.3493 7.43973 10.5335 7.65335 10.6636 7.91853C10.7913 8.18125 10.8576 8.51027 10.8576 8.90067C10.8576 9.32299 10.7618 9.67165 10.5703 9.95402C10.3763 10.2364 10.0964 10.4647 9.71585 10.644C10.2339 10.7913 10.6145 11.054 10.865 11.4223C11.1203 11.7955 11.2455 12.2424 11.2455 12.7679C11.2455 13.1951 11.1645 13.5609 11 13.8679ZM17.8455 12.5714H13.4652C13.4652 13.0478 13.6297 13.5045 13.8777 13.75C14.1281 13.9931 14.4866 14.1158 14.9556 14.1158C15.2944 14.1158 15.5817 14.0299 15.8272 13.8605C16.0703 13.6911 16.2176 13.5118 16.2717 13.3252H17.74C17.5042 14.0545 17.1458 14.575 16.6596 14.8893C16.1783 15.2036 15.5891 15.3607 14.904 15.3607C14.4252 15.3607 13.9955 15.2821 13.61 15.1324C13.2393 14.9875 12.9054 14.7665 12.6304 14.4817C12.3592 14.1892 12.1496 13.8452 12.0141 13.4701C11.8643 13.0551 11.7906 12.6181 11.7955 12.1786C11.7955 11.7243 11.8717 11.302 12.019 10.9092C12.3013 10.1455 12.8882 9.53415 13.6371 9.21741C14.0373 9.05045 14.467 8.96696 14.9016 8.97187C15.4172 8.97187 15.8641 9.07009 16.252 9.27143C16.6255 9.46369 16.9498 9.73924 17.1998 10.0768C17.4478 10.4132 17.6221 10.7962 17.7326 11.2283C17.8382 11.6531 17.875 12.1 17.8455 12.5714ZM14.85 10.2241C14.5848 10.2241 14.3614 10.2708 14.1895 10.3616C14.0176 10.4525 13.8752 10.5654 13.7672 10.6955C13.6643 10.8212 13.5883 10.9666 13.5437 11.1228C13.5045 11.2529 13.4775 11.3855 13.4676 11.5205H16.1808C16.1415 11.0958 15.9942 10.7815 15.7978 10.5605C15.5915 10.342 15.26 10.2241 14.85 10.2241Z" fill="white" fill-opacity="0.4"/>
</svg>
