<svg width="22" height="22" viewBox="0 0 22 22" fill="none" xmlns="http://www.w3.org/2000/svg">
<path d="M11 0C4.92545 0 0 4.92545 0 11C0 17.0746 4.92545 22 11 22C17.0746 22 22 17.0746 22 11C22 4.92545 17.0746 0 11 0ZM17.2857 6.22924L16.2839 7.18929C16.1955 7.25558 16.1538 7.36362 16.171 7.4692V14.5333C16.1538 14.6413 16.1955 14.7493 16.2839 14.8132L17.2661 15.7732V15.9868H12.3357V15.783L13.3498 14.7984C13.4504 14.6978 13.4504 14.6683 13.4504 14.5185V8.80245L10.6268 15.9623H10.2462L6.96094 8.80245V13.6027C6.93147 13.804 7.00268 14.0078 7.14509 14.1527L8.46607 15.7511V15.9647H4.71429V15.7511L6.03527 14.1527C6.10487 14.0808 6.15666 13.9936 6.18651 13.8981C6.21636 13.8026 6.22342 13.7014 6.20714 13.6027V8.05357C6.22433 7.89888 6.1654 7.74911 6.04754 7.64353L4.87388 6.22924V6.01562H8.52009L11.3339 12.1908L13.8114 6.02054H17.2857V6.22924Z" fill="white" fill-opacity="0.4"/>
</svg>
